HIERARCHY
ROOT hips
{
  OFFSET 0 9.313263304106702 1.2146308026317778
  CHANNELS 6 Xposition Yposition Zposition Yrotation Xrotation Zrotation
  JOINT spine
  {
    OFFSET -6.402521e-31 0.5173342420023708 0
    CHANNELS 3 Yrotation Xrotation Zrotation
    JOINT chest
    {
      OFFSET 0 1.130544299341115 0
      CHANNELS 3 Yrotation Xrotation Zrotation
      JOINT upperChest
      {
        OFFSET 0 1.0863555061129995 0
        CHANNELS 3 Yrotation Xrotation Zrotation
        JOINT neck
        {
          OFFSET 0 1.3773706506454462 0
          CHANNELS 3 Yrotation Xrotation Zrotation
          JOINT head
          {
            OFFSET 0 0.7374408940073979 0
            CHANNELS 3 Yrotation Xrotation Zrotation
            JOINT leftEye
            {
              OFFSET 0.25066580148932727 0.6408406698778757 0.15963719178883284
              CHANNELS 3 Yrotation Xrotation Zrotation
              End Site
              {
                OFFSET 0.25066580148932727 0.6408406698778757 0.15963719178883284
              }
            }
            JOINT rightEye
            {
              OFFSET -0.25066576739704244 0.6408406384191823 0.15963727561643756
              CHANNELS 3 Yrotation Xrotation Zrotation
              End Site
              {
                OFFSET -0.25066576739704244 0.6408406384191823 0.15963727561643756
              }
            }
          }
        }
        JOINT leftShoulder
        {
          OFFSET 0.3761817444281191 1.0539491987447769 0
          CHANNELS 3 Yrotation Xrotation Zrotation
          JOINT leftUpperArm
          {
            OFFSET 0.8702844380000002 0 0
            CHANNELS 3 Yrotation Xrotation Zrotation
            JOINT leftLowerArm
            {
              OFFSET 2.198527310000323 0 0
              CHANNELS 3 Yrotation Xrotation Zrotation
              JOINT leftHand
              {
                OFFSET 2.146852313968281 0 0
                CHANNELS 3 Yrotation Xrotation Zrotation
                JOINT leftIndexProximal
                {
                  OFFSET 0.6585177834681599 0.07380250427007962 0.18382213159631788
                  CHANNELS 3 Yrotation Xrotation Zrotation
                  JOINT leftIndexIntermediate
                  {
                    OFFSET 0.3323021288626682 -0.009606893929485771 -0.012820872253340998
                    CHANNELS 3 Yrotation Xrotation Zrotation
                    JOINT leftIndexDistal
                    {
                      OFFSET 0.2045908926985518 -0.0071133989147997845 -0.006828784783599051
                      CHANNELS 3 Yrotation Xrotation Zrotation
                      End Site
                      {
                        OFFSET 0.2045908926985518 -0.0071133989147997845 -0.006828784783599051
                      }
                    }
                  }
                }
                JOINT leftLittleProximal
                {
                  OFFSET 0.6110054258835662 0.07380246363125398 -0.29175655876064077
                  CHANNELS 3 Yrotation Xrotation Zrotation
                  JOINT leftLittleIntermediate
                  {
                    OFFSET 0.3144281999999998 -2.5124724523095665e-9 1.8658118799974588e-7
                    CHANNELS 3 Yrotation Xrotation Zrotation
                    JOINT leftLittleDistal
                    {
                      OFFSET 0.18116185580251631 0.002815456192251098 0.0034826415518049436
                      CHANNELS 3 Yrotation Xrotation Zrotation
                      End Site
                      {
                        OFFSET 0.18116185580251631 0.002815456192251098 0.0034826415518049436
                      }
                    }
                  }
                }
                JOINT leftMiddleProximal
                {
                  OFFSET 0.6637478005691111 0.07380246480054087 0.02046981859247815
                  CHANNELS 3 Yrotation Xrotation Zrotation
                  JOINT leftMiddleIntermediate
                  {
                    OFFSET 0.3705733999999994 -2.9611069152224445e-9 9.35054791928458e-8
                    CHANNELS 3 Yrotation Xrotation Zrotation
                    JOINT leftMiddleDistal
                    {
                      OFFSET 0.22861063500000056 -1.82673876025774e-9 -1.6740782024515788e-7
                      CHANNELS 3 Yrotation Xrotation Zrotation
                      End Site
                      {
                        OFFSET 0.22861063500000056 -1.82673876025774e-9 -1.6740782024515788e-7
                      }
                    }
                  }
                }
                JOINT leftRingProximal
                {
                  OFFSET 0.6561845547265777 0.07380246406440083 -0.13588087571513918
                  CHANNELS 3 Yrotation Xrotation Zrotation
                  JOINT leftRingIntermediate
                  {
                    OFFSET 0.3437531000000005 -2.746796123886952e-9 1.4935781944558357e-7
                    CHANNELS 3 Yrotation Xrotation Zrotation
                    JOINT leftRingDistal
                    {
                      OFFSET 0.1983118991198174 -0.002467117924596085 -0.004538141969590015
                      CHANNELS 3 Yrotation Xrotation Zrotation
                      End Site
                      {
                        OFFSET 0.1983118991198174 -0.002467117924596085 -0.004538141969590015
                      }
                    }
                  }
                }
                JOINT leftThumbProximal
                {
                  OFFSET 0.09767004258864787 -0.14930060425447422 -0.07008212897521154
                  CHANNELS 3 Yrotation Xrotation Zrotation
                  JOINT leftThumbIntermediate
                  {
                    OFFSET 0.36682123028154767 -0.015768465060082004 0.28693641268151077
                    CHANNELS 3 Yrotation Xrotation Zrotation
                    JOINT leftThumbDistal
                    {
                      OFFSET 0.21091084272403915 -0.016756648201192714 0.1933767059105508
                      CHANNELS 3 Yrotation Xrotation Zrotation
                      End Site
                      {
                        OFFSET 0.21091084272403915 -0.016756648201192714 0.1933767059105508
                      }
                    }
                  }
                }
              }
            }
          }
        }
        JOINT rightShoulder
        {
          OFFSET -0.37618174442811925 1.0539491987447769 0
          CHANNELS 3 Yrotation Xrotation Zrotation
          JOINT rightUpperArm
          {
            OFFSET -0.870284438 0 0
            CHANNELS 3 Yrotation Xrotation Zrotation
            JOINT rightLowerArm
            {
              OFFSET -2.1985273100003235 0 0
              CHANNELS 3 Yrotation Xrotation Zrotation
              JOINT rightHand
              {
                OFFSET -2.1468523139682802 0 0
                CHANNELS 3 Yrotation Xrotation Zrotation
                JOINT rightIndexProximal
                {
                  OFFSET -0.6585177834681599 0.07380250427007962 0.18382213159631788
                  CHANNELS 3 Yrotation Xrotation Zrotation
                  JOINT rightIndexIntermediate
                  {
                    OFFSET -0.3323021288626682 -0.009606893929485771 -0.012820872253340998
                    CHANNELS 3 Yrotation Xrotation Zrotation
                    JOINT rightIndexDistal
                    {
                      OFFSET -0.2045908926985518 -0.0071133989147997845 -0.006828784783599051
                      CHANNELS 3 Yrotation Xrotation Zrotation
                      End Site
                      {
                        OFFSET -0.2045908926985518 -0.0071133989147997845 -0.006828784783599051
                      }
                    }
                  }
                }
                JOINT rightLittleProximal
                {
                  OFFSET -0.6110054258835662 0.07380246363125398 -0.29175655876064077
                  CHANNELS 3 Yrotation Xrotation Zrotation
                  JOINT rightLittleIntermediate
                  {
                    OFFSET -0.3144281999999998 -2.5124724523095665e-9 1.8658118799974588e-7
                    CHANNELS 3 Yrotation Xrotation Zrotation
                    JOINT rightLittleDistal
                    {
                      OFFSET -0.18116185580251631 0.002815456192251098 0.0034826415518049436
                      CHANNELS 3 Yrotation Xrotation Zrotation
                      End Site
                      {
                        OFFSET -0.18116185580251631 0.002815456192251098 0.0034826415518049436
                      }
                    }
                  }
                }
                JOINT rightMiddleProximal
                {
                  OFFSET -0.6637478005691111 0.07380246480054087 0.02046981859247815
                  CHANNELS 3 Yrotation Xrotation Zrotation
                  JOINT rightMiddleIntermediate
                  {
                    OFFSET -0.3705733999999994 -2.9611069152224445e-9 9.35054791928458e-8
                    CHANNELS 3 Yrotation Xrotation Zrotation
                    JOINT rightMiddleDistal
                    {
                      OFFSET -0.22861063500000056 -1.82673876025774e-9 -1.6740782024515788e-7
                      CHANNELS 3 Yrotation Xrotation Zrotation
                      End Site
                      {
                        OFFSET -0.22861063500000056 -1.82673876025774e-9 -1.6740782024515788e-7
                      }
                    }
                  }
                }
                JOINT rightRingProximal
                {
                  OFFSET -0.6561845547265777 0.07380246406440083 -0.13588087571513918
                  CHANNELS 3 Yrotation Xrotation Zrotation
                  JOINT rightRingIntermediate
                  {
                    OFFSET -0.3437531000000005 -2.746796123886952e-9 1.4935781944558357e-7
                    CHANNELS 3 Yrotation Xrotation Zrotation
                    JOINT rightRingDistal
                    {
                      OFFSET -0.1983118991198174 -0.002467117924596085 -0.004538141969590015
                      CHANNELS 3 Yrotation Xrotation Zrotation
                      End Site
                      {
                        OFFSET -0.1983118991198174 -0.002467117924596085 -0.004538141969590015
                      }
                    }
                  }
                }
                JOINT rightThumbProximal
                {
                  OFFSET -0.09767004258864787 -0.14930060425447422 -0.07008212897521154
                  CHANNELS 3 Yrotation Xrotation Zrotation
                  JOINT rightThumbIntermediate
                  {
                    OFFSET -0.36682123028154767 -0.015768465060082004 0.28693641268151077
                    CHANNELS 3 Yrotation Xrotation Zrotation
                    JOINT rightThumbDistal
                    {
                      OFFSET -0.21091084272403915 -0.016756648201192714 0.1933767059105508
                      CHANNELS 3 Yrotation Xrotation Zrotation
                      End Site
                      {
                        OFFSET -0.21091084272403915 -0.016756648201192714 0.1933767059105508
                      }
                    }
                  }
                }
              }
            }
          }
        }
      }
    }
  }
  JOINT leftUpperLeg
  {
    OFFSET 0.7715603 -0.3993844658041501 0
    CHANNELS 3 Yrotation Xrotation Zrotation
    JOINT leftLowerLeg
    {
      OFFSET 0 -3.529830000249343 0
      CHANNELS 3 Yrotation Xrotation Zrotation
      JOINT leftFoot
      {
        OFFSET 0 -4.154939295409685 0.004208579085223096
        CHANNELS 3 Yrotation Xrotation Zrotation
        JOINT leftToes
        {
          OFFSET 0 -0.6353414391261847 1.10414981190622
          CHANNELS 3 Yrotation Xrotation Zrotation
          End Site
          {
            OFFSET 0 -0.6015820691747853 1.10414981190622
          }
        }
      }
    }
  }
  JOINT rightUpperLeg
  {
    OFFSET -0.7715603 -0.3993844658041501 0
    CHANNELS 3 Yrotation Xrotation Zrotation
    JOINT rightLowerLeg
    {
      OFFSET 0 -3.529830000249343 0
      CHANNELS 3 Yrotation Xrotation Zrotation
      JOINT rightFoot
      {
        OFFSET 0 -4.154939295409685 0.004208579085223096
        CHANNELS 3 Yrotation Xrotation Zrotation
        JOINT rightToes
        {
          OFFSET 0 -0.6353414391261847 1.10414981190622
          CHANNELS 3 Yrotation Xrotation Zrotation
          End Site
          {
            OFFSET 0 -0.6015820691747853 1.10414981190622
          }
        }
      }
    }
  }
}
MOTION
Frames: 4
Frame Time: 0.03333333333333333
0.00933346338570118 8.916940689086912 1.5699324916496804 -4.0944292620953355 1.051284544350697 -1.0224346152413195 -0.03181594120675058 0.6761653626110454 -0.19646378098169912 -0.018570168668612306 -2.5149999815343977 -0.019602750225454685 0 0 0 2.6049299192128026 -11.61066143231481 8.99063395770361 -3.6999270069780064 -8.727745333601924 3.732159276743184 0 0 0 0 0 0 7.2898381740303835 -0.045077875795506275 -9.873293197502587 -22.635478504802215 3.153974223639631 -69.96330948845916 -5.800224544575309 -0.000007579348317014919 0.000009502105882817542 6.98444988273596 -11.944529798538227 10.72826366653547 -0.5790712012783081 0.024281169813738884 4.76180107358092 1.2143547537357977 0.10656596020220568 -10.014157979181673 -0.7461914334872023 0.039623157833141166 6.1317545917027765 10.725361973258433 5.635790876795725 -32.32524566766531 -1.933923646280722 0.4140815285389676 -18.695853544995025 2.3008428844989672 0.4687685829663762 -19.599940223333693 0.7126044153552985 0.036819234487614594 -5.945030666871586 1.3969923572056158 0.14182662171296942 -11.634540922776427 1.1996945955439846 0.1046509093099057 -9.970867163276768 5.796331528035298 1.957353697189918 -24.276634075152845 1.7370821742747087 0.22192975617990077 -14.547854143568939 0.7434520566530513 0.04016100201011165 -6.172287873738893 22.039366679987037 -3.339821771340249 9.413772196768207 2.3471417017502763 1.6063767011955354 -0.5097359542140022 -10.229435097604386 -1.9940408160723595 1.4327827982191965 -11.936417873116582 -2.7083191329886667 -2.964596426830943 23.079960085920018 -48.596904518296256 4.843546258842557 122.98052495216038 -3.4185181849543776e-7 -0.0000011088578974817105 -20.65436707545982 -4.761598117104801 -40.647723185225566 15.707030451178703 0.8569541534153098 -2.1452555334786547 -0.48204456191941447 0.017976154390940677 4.1991718620583045 0.9585102232630212 0.06756482055798207 -7.973031300234455 -20.0057952573608 5.163579864505074 13.445045351222559 -0.13360537447292425 -0.0013414318108358636 1.891760321373785 -0.8905501821812121 0.0379682573126929 6.850491837260708 1.8085064325231686 -0.0034750959480409627 0.22748594114453013 -1.7062023177071475 0.2262579947857367 14.954849015132968 0.3880362106006875 0.013123369839019662 -3.488899018200477 -7.355392806869822 0.863110608317189 6.674899720128965 -1.8392891736846715 0.24171305421198036 15.05556790342202 0.6550370156209135 -0.8298520678751158 -4.887197865330588 -16.104130347993827 -10.848451258642195 -6.96002984807588 1.315266137824853 -3.6716700537208116 -6.011785570929981 11.381732219220607 -5.767621602268881 0.29798045071938367 6.858656687454333 -1.437869989166289 2.5345575057489667 -0.4964721209387683 10.29210043607327 -0.6496830470494422 0.1353688874568929 -10.029392535406586 -1.0312960899979877 -1.1765231957302707e-7 -0.3453408576703529 7.494363756902763e-7 -6.921286431541829 -1.3154913325076105 1.6349461212485499 1.846662543773583 8.911636111819728 -0.8498016257606258 -0.04383898967892713 -8.500697796671185 0.36650091273596047 -0.0000022238660208287476 0.00006098286318358206 -0.0000010672021982630203
0.010838256302204998 8.916650251908735 1.5720523308411174 -4.147202228629348 1.0527224348158792 -1.0079884914956294 -0.0453013726446943 0.6761507940837534 -0.19641072357048406 -0.029366822267437007 -2.5142511412845647 -0.023379764805447106 0 0 0 2.5965338738684856 -11.605626194524397 9.032404473157829 -3.7046795482592203 -8.730310756299547 3.6762946481752836 0 0 0 0 0 0 7.289029527048353 -0.042889960120256226 -9.880617915127369 -22.666901903542083 3.12492729854934 -70.01964094249796 -5.7422891767724344 -0.000013993943923020557 -0.00001519803658410677 7.11168595080594 -11.976572584409993 10.580375986075792 -0.5571972074877957 0.02247883181852613 4.579938420883943 1.2090070475002888 0.10561768952995389 -9.969179708828605 -0.7164467483791184 0.036496241178959284 5.883953938830506 10.658794167380616 5.565157831955996 -32.172974685444814 -1.9364977452665209 0.4131338417795552 -18.673148438276936 2.278276083994299 0.46002245188314816 -19.39969260055136 0.7236037276796191 0.03795638118526463 -6.036697898689372 1.3969923572056158 0.14182662171296942 -11.634540922776427 1.1996945955439846 0.1046509093099057 -9.970867163276768 5.734510768057371 1.9219805829241574 -24.162082783607527 1.737018920062799 0.2218948579203578 -14.547310763717824 0.7434520566530513 0.04016100201011165 -6.172287873738893 22.13621071740629 -3.319844745590675 9.438460063209575 2.6249900138875564 1.7244618770777649 -0.42345460468229124 -9.79778611903776 -1.9453309283652689 1.4650804094576348 -12.002771674593896 -2.7267055482206577 -3.026998424653936 23.249639491122114 -48.20988518814194 4.525640159201847 125.14037774916596 -0.00000298502028631213 -0.000005579275894237884 -16.227816834474382 8.838691425907916 -38.946221170888634 15.70702387530319 0.8569732053707798 -2.1452666259979614 -0.48204733658576493 0.017980519975932717 4.1991654759448975 0.9585056348686933 0.06756986983219783 -7.973033836798037 -20.005810491981656 5.163575578242381 13.445045351222559 -0.13359408868295616 -0.0013588270320014063 1.89175306825307 -0.8905380173737657 0.0379746806267702 6.850474900180169 1.8084733652731788 -0.003467593120293592 0.22747332140245768 -1.706198157373505 0.22626245045169496 14.954845715683687 0.38803479657049444 0.013137595509268558 -3.48890221391777 -7.3554194962996275 0.8631321685480793 6.674895903756807 -1.8392893870200118 0.24170558362609956 15.055585280013146 0.6550321062283329 -0.8298411811192702 -4.887199992227703 -16.104148980996555 -10.84846082104752 -6.960041487183507 1.3153160378521305 -3.6716999972609123 -6.011755792066832 11.381725489283571 -5.7676173116802385 0.2979721110003332 6.84808359466785 -1.4043778862370861 2.5029915077866276 -0.4262591889986931 10.272111907093437 -0.6371624888459425 0.13507490216748916 -10.04039611151044 -1.025791202227259 1.0279898547258095e-7 -0.34799280719863324 -3.1860393876985903e-7 -6.940634341545747 -1.334220128971788 1.6009773090074713 1.9264839595237235 8.959359823502622 -0.8376492079576665 -0.04523179618819375 -8.532507561181426 0.3758537009737708 0.000004215703605868865 -0.000015743071904540883 0.0000025613225671987768
0.012285252186385069 8.916528875177555 1.5737678608898344 -4.219636552600447 1.0656133110716526 -0.9874593745328807 -0.06048292660347443 0.6781579426590763 -0.19556559704696103 -0.0416716194447001 -2.51332732297787 -0.023550408479411405 0 0 0 2.586673477123366 -11.6168412062186 9.055761755453396 -3.7170831590388618 -8.753455640469536 3.71643094028797 0 0 0 0 0 0 7.306349826155901 -0.05193758264976896 -9.84703105282974 -22.714969416914588 3.057452288812228 -70.12230734770668 -5.653067357927297 -0.000003845091736166272 -0.0000016334731408605252 7.246806054644272 -12.111154464399188 10.396626514049915 -0.5345054108630676 0.020680117381209364 4.3913008106126705 1.2034661111899239 0.10464779436492244 -9.922535627899384 -0.6855898345262358 0.03338271487477303 5.62693804385914 10.5894098033097 5.492279200835188 -32.014980793198816 -1.9391659383636137 0.4121430918106648 -18.64959287380201 2.254833082524925 0.4510395620749866 -19.19197449117205 0.7350141425233339 0.03916758277378888 -6.131753742813461 1.3969923572056158 0.14182662171296942 -11.634540922776427 1.1996945955439846 0.1046509093099057 -9.970867163276768 5.670269712741161 1.885550443223633 -24.043218216996788 1.736948515573651 0.22186843075980298 -14.546728448483638 0.7434520566530513 0.04016100201011165 -6.172287873738893 22.236661275254388 -3.2991664394114326 9.464083551276604 2.9133608524608956 1.8464603910807733 -0.3333478022103343 -9.350101146662896 -1.8950534195529405 1.498951841035486 -12.042410272726544 -2.7433598720687637 -3.0845005190893096 23.250530458561265 -48.17210473794155 4.484237502449597 127.27880613861825 0.000014954706339869123 0.0000015647299041972453 -11.988680046356798 25.333014631262305 -34.44463567075929 15.707028807209864 0.8569606641675886 -2.145257240020097 -0.4820394928174222 0.017969777768706507 4.199173990762749 0.9585107567972443 0.06756273281316118 -7.973030454713254 -20.005807269884926 5.163599152687553 13.445036179882575 -0.13359713024337413 -0.0013639693715389541 1.8917515749635039 -0.8905376438928341 0.037975631117171095 6.850480393599892 1.8085064325231686 -0.003478555857411134 0.22748124542655224 -1.7062071180920968 0.22627064140648406 14.954845715683687 0.38803479657049444 0.013129926553990685 -3.488896461626627 -7.355407640482288 0.863096519453505 6.674911566246503 -1.8392569600477386 0.24172778193844313 15.055569552371328 0.6550253824950002 -0.8298507337138585 -4.887195738433459 -16.104147310602414 -10.848451258642195 -6.9600380456595285 1.3151281414581528 -3.6716422490059037 -6.0117839362842735 11.381709833408351 -5.767591139090221 0.2979590338474607 6.835961631225339 -1.3705914135406967 2.460348719845057 -0.33504108368169616 10.225729952281965 -0.61883465531816 0.1345819416343789 -10.035362043919388 -1.0221498354115701 5.300411929238203e-7 -0.35966048690400876 1.0475444937092645e-7 -6.953390795519411 -1.3657240497450933 1.5639514431557306 2.0174711411908244 8.99885963018507 -0.8274314626909397 -0.046590121559501985 -8.555479713651845 0.38558268505052923 -0.0000047508359512462155 -0.007330623943688324 4.2466964573513e-7
0.013629347932609644 8.916554884477094 1.5751127313271098 -4.293626876997608 1.0905143988954937 -0.9659124124624987 -0.07024422735258534 0.6808279873350273 -0.19520010307512262 -0.04975570089831542 -2.5132726288525555 -0.018513059975714907 0 0 0 2.568835482353758 -11.644951755811334 9.066608181703826 -3.7635467792892494 -8.792048623429 3.826362264459083 0 0 0 0 0 0 7.338215534116339 -0.07066422125242287 -9.778645570105551 -22.76754642470314 2.9639898066796206 -70.26254921196818 -5.54786827653941 -0.000022356651967861115 -0.00000982099104318031 7.397523596077406 -12.259695648264056 10.196637094980483 -0.5110411225593525 0.018893354128444128 4.196331817236029 1.1977327612392146 0.10364680981207891 -9.874342266971125 -0.6536681171652319 0.03030497046108086 5.36125343896012 10.517304650617032 5.417332361088643 -31.851599027646174 -1.9419307678311575 0.41111456150851594 -18.6252019791462 2.2305729587578704 0.4418271181355543 -18.97726881276616 0.7468031995193719 0.04043068449226404 -6.230002774395396 1.3969923572056158 0.14182662171296942 -11.634540922776427 1.1996945955439846 0.1046509093099057 -9.970867163276768 5.6037233860929705 1.8481335897875069 -23.920311381104533 1.7368822745072812 0.22187103212088527 -14.546175946773896 0.7434520566530513 0.04016100201011165 -6.172287873738893 22.340517068445557 -3.2778576595496998 9.490634409608681 3.211686160953366 1.9721442024502747 -0.23955483451202994 -8.887254501778935 -1.8433700495306469 1.5344005109418752 -12.03198036039868 -2.7473693125767524 -3.0995756674497597 23.021997338542718 -48.53312014581338 4.659599677664837 129.2782304771029 -0.0000020441102302299136 0.000003652310022036151 -5.951119756665062 40.19913685661735 -26.054110374395172 15.707028807209864 0.8569720846675144 -2.1452661993626063 -0.48204424176560473 0.0179635612290391 4.199163948656513 0.9585021135428055 0.06754702470117299 -7.973034682319224 -20.005816936174718 5.163582007636432 13.445035382594991 -0.13359911792978718 -0.0013565060433408398 1.891753281580151 -0.8905321483876883 0.037965122361897294 6.850478290894415 1.8084863788362218 -0.003478176078215251 0.22748087190353117 -1.7062067980664342 0.22626856031699324 14.95484406595901 0.3880367975566165 0.013124171919360716 -3.4888945441962314 -7.35540425310579 0.8631292333681242 6.674895903756807 -1.8392896003553516 0.24169789959491217 15.055586928962287 0.6550415514727457 -0.8298404873554184 -4.887198716089436 -16.104162344148627 -10.848444304165787 -6.9600363198524695 1.31529262389647 -3.6716875920798913 -6.011761814844583 11.381740467780103 -5.767640051800416 0.29797819819076676 6.826799572013584 -1.343266836052543 2.4179916387851974 -0.24562763072467064 10.161342277941138 -0.6047212497351165 0.13362914182348326 -10.017870004280528 -1.0171171918225097 9.656654122345703e-7 -0.3791384035322169 -4.3477087819984925e-7 -6.961855149313638 -1.404795293524745 1.529473900130934 2.100336194509166 9.02248654711346 -0.8190875839939471 -0.04777641515699806 -8.567189931806217 0.3948080869717831 0.000004223628932075628 -0.02887461926835043 4.181829415913578e-7
